<?xml version="1.0" encoding="utf-8"?>
<!-- Generator: Adobe Illustrator 23.0.1, SVG Export Plug-In . SVG Version: 6.00 Build 0)  -->
<svg version="1.1" id="brazo_x5F_de" xmlns="http://www.w3.org/2000/svg" xmlns:xlink="http://www.w3.org/1999/xlink" x="0px"
	 y="0px" viewBox="0 0 409.6 883.4" style="enable-background:new 0 0 409.6 883.4;" xml:space="preserve">
<style type="text/css">
	.st0{fill:#61C975;}
	.st1{fill:#78E08F;}
	.st2{fill:#FF5252;}
</style>
<g>
	<g>
		<path class="st0" d="M95.8,585.5c0.1,0,0.2,0,0.2,0c8-0.1,14.4-6.7,14.3-14.7c-0.1-8-6.6-14.3-14.5-14.3c0,0-0.1,0-0.1,0
			c-0.6,0-29-0.3-48.1-20.7c-14.1-15.1-20.3-37.9-18.3-67.8c1.5-22.9,11.1-45.1,28.6-66c5.1-6.2,4.3-15.3-1.9-20.4
			c-6.2-5.1-15.3-4.3-20.4,1.9C14.2,409.1,2.4,436.9,0.4,466c-2.6,38.4,6.3,68.7,26.4,89.9C54.1,584.8,92.2,585.5,95.8,585.5z"/>
	</g>
	<g>
		<path class="st1" d="M37.8,378.4c-4.3,4.5-2.6,12.3,3.9,18.6s15.6,8.8,19.9,4.3c4.3-4.5,2.5-13.3-4.1-19.6S42.1,373.9,37.8,378.4z
			"/>
	</g>
	<path class="st0" d="M44.8,377.7c-2.7,3.3-0.5,9.4,4.8,13.8c5.3,4.3,11.8,5.2,14.4,2c2.7-3.3-4.8-5-10.1-9.4
		C48.7,379.7,47.5,374.4,44.8,377.7z"/>
	<g>
		<path class="st2" d="M49.1,366.2c2.4-2.7,4.5-5.7,6.3-8.8c1-1.7,2.3-3.2,3.9-4.5l2.5-2l19.6-15.8c0.8-0.7,1.9-1.1,3-1.1l8,0
			c1.2,0,2.4,0.4,3.2,1.1c2.3,2,2.1,5.5-0.1,7.3l-20.9,16.9c-2,1.6-2.4,4.6-0.7,6.7l0,0c1.6,2,4.6,2.4,6.7,0.7l20.7-16.7
			c1.7-1.3,4.1-1.6,5.8-0.3c1.6,1.1,2.3,3.1,1.9,4.9l-1.7,8c-0.2,1.1-0.8,2-1.7,2.7l-19.6,15.8l-2.5,2c-1.5,1.2-3.2,2.1-4.9,2.7
			c-3.4,1.2-6.6,3-9.7,4.9c-2.8,1.7-6.3,2.5-9.9,2.2c-7.4-0.8-13.4-6.7-14.2-14.1C44.5,373.9,46.1,369.5,49.1,366.2z"/>
	</g>
</g>
</svg>
