<?xml version="1.0" encoding="utf-8"?>
<!-- Generator: Adobe Illustrator 23.0.1, SVG Export Plug-In . SVG Version: 6.00 Build 0)  -->
<svg version="1.1" id="flotador" xmlns="http://www.w3.org/2000/svg" xmlns:xlink="http://www.w3.org/1999/xlink" x="0px" y="0px"
	 viewBox="0 0 409.6 883.4" style="enable-background:new 0 0 409.6 883.4;" xml:space="preserve">
<style type="text/css">
	.st0{fill:#FF5252;}
	.st1{fill:#D83939;}
	.st2{fill:#FF9797;}
</style>
<g>
	<g>
		<path class="st0" d="M251.2,843.3c-0.1,24.8-17.9,40-43.5,40.1s-46.6-14.9-46.6-39.7c0-13.4,20.8-14,46.4-14.1
			S251.3,830.3,251.2,843.3z"/>
	</g>
	<g>
		<path class="st1" d="M207.5,829.6c24.8-0.1,42.6,0.7,43.6,12.5c0-0.6,0-1.2,0-1.8c0.1-13-18.1-13.8-43.7-13.7
			c-25.6,0.1-46.4,0.7-46.4,14.1c0,0.7,0,1.3,0.1,2C162.3,830.2,182.6,829.7,207.5,829.6z"/>
	</g>
	<g>
		<path class="st2" d="M229.9,869.7c7-4,10-10.5,6.8-14.7s-6.8,3-13.7,7c-7,4-14.6,3.2-11.4,7.3S222.9,873.6,229.9,869.7z"/>
	</g>
</g>
</svg>
