<?xml version="1.0" encoding="utf-8"?>
<!-- Generator: Adobe Illustrator 23.0.1, SVG Export Plug-In . SVG Version: 6.00 Build 0)  -->
<svg version="1.1" id="torzo" xmlns="http://www.w3.org/2000/svg" xmlns:xlink="http://www.w3.org/1999/xlink" x="0px" y="0px"
	 viewBox="0 0 409.6 883.4" style="enable-background:new 0 0 409.6 883.4;" xml:space="preserve">
<style type="text/css">
	.st0{fill:#61C975;}
	.st1{fill:#78E08F;}
</style>
<g>
	<circle class="st0" cx="104.9" cy="574" r="27"/>
	<g>
		<circle class="st1" cx="304.7" cy="574" r="27"/>
	</g>
	<path class="st0" d="M308.7,573c0.9,16,1.1,29.6-5.4,30c-6.5,0.3-12.5-12.3-13.3-28.3c-0.9-16,3.7-29.2,10.2-29.6
		C306.7,544.7,307.8,557,308.7,573z"/>
	<g>
		<path class="st1" d="M302.8,564c-1.3-17.3-8.9-32.4-22.2-40.4c-5-3-4.9-20.5-9.3-35.8c-18.5-63.8-113.5-63.4-133.2,0
			c-4.4,14.3-4.3,32.8-9.3,35.8c-13.3,8-20.9,23.1-22.2,40.4c-9.3,127.3,19,237,56.2,285.9c2.4,3.1,7.3,1.4,7.3-2.5v0
			c0-12.3,69.1-12.3,69.1,0v6.9c0,3.7,4.5,5.5,7.1,2.8C289.1,812.4,312.6,698,302.8,564z"/>
	</g>
	<path class="st0" d="M204.7,817c-15.7,0-29.9,2.8-40.3,7.3c-6.4,2.8-8.6,15.6-4.6,21.3c1,1.4,2,2.8,3.1,4.2
		c2.4,3.1,7.3,1.4,7.3-2.5c0-12.3,69.1-12.3,69.1,0v6.9c0,3.7,4.5,5.5,7,2.8c2.6-2.7,5.1-5.7,7.6-8.9c4-5.2,2.6-17.7-3.1-21
		C240.1,821,223.5,817,204.7,817z"/>
	<path class="st0" d="M269.2,507.1c-0.2-1.2-0.4-2.5-0.6-3.7c-0.4-2.2-2.6-3.7-4.8-3.1l0,0c-6.9,1.9-14.8-4.7-17.6-14.9
		c-2.2-8.1-0.5-15.9,3.7-19.7c1.5-1.4,1.5-3.8,0.1-5.3c-30.8-31.1-91.3-21.9-105.9,26.9c-1.9,6.3-2.9,13.6-3.9,19.8
		c-0.2,1.5-0.8,18.1-6.1,21.2c-3.2,1.8-8.8,5.1-14.2,9.7c-7.6,6.5-12.5,15.8-13.2,25.8c0,0,0,0.1,0,0.1c-6,82.2,3.7,157,21.3,212.9
		c9.8,31.1,55.6,24.1,55.6-8.5c0-63.9,0-139.1,0.1-193.4c0-38.7,36.3-67.4,73.9-58.1c0.2,0.1,0.5,0.1,0.7,0.2l0,0
		C264.4,518.7,270.2,513.4,269.2,507.1z"/>
</g>
</svg>
