<?xml version="1.0" encoding="utf-8"?>
<!-- Generator: Adobe Illustrator 23.0.1, SVG Export Plug-In . SVG Version: 6.00 Build 0)  -->
<svg version="1.1" id="ojo" xmlns="http://www.w3.org/2000/svg" xmlns:xlink="http://www.w3.org/1999/xlink" x="0px" y="0px"
	 viewBox="0 0 409.6 883.4" style="enable-background:new 0 0 409.6 883.4;" xml:space="preserve">
<style type="text/css">
	.st0{fill:#B5F7C2;}
	.st1{fill:#AFE8B8;}
	.st2{fill:#D83939;}
	.st3{fill:#FF5252;}
</style>
<g>
	<path class="st0" d="M172.5,450.2c-8.9,5.7-6.2,19.5,4.2,21.4c7.9,1.4,17.6-0.6,28.1-0.6c10.7,0,20.5,2,28.4,0.4
		c10.4-2,13.1-15.8,4.1-21.5C218.1,437.8,191.8,438,172.5,450.2z"/>
	<path class="st1" d="M181,453.9c-6.6,4.2-4.6,14.3,3.1,15.7c5.8,1.1,12.9-0.4,20.7-0.4c7.8,0,15.1,1.4,20.9,0.3
		c7.7-1.5,9.6-11.7,3-15.8C214.6,444.8,195.3,444.9,181,453.9z"/>
	<g>
		<path class="st2" d="M179.9,464.7c0,8.3,11.1,4.3,24.8,4.3c13.8,0,25,4,25-4.3c0-8.3-11.1-15-24.9-15
			C191,449.6,179.9,456.4,179.9,464.7z"/>
	</g>
	<g>
		<path class="st3" d="M179.9,463.7c0,8.3,11.1,4.3,24.8,4.3c13.8,0,25,4,25-4.3c0-8.3-11.1-15-24.9-15
			C191,448.6,179.9,455.4,179.9,463.7z"/>
	</g>
</g>
</svg>
