<?xml version="1.0" encoding="utf-8"?>
<!-- Generator: Adobe Illustrator 23.0.1, SVG Export Plug-In . SVG Version: 6.00 Build 0)  -->
<svg version="1.1" id="brazo_x5F_iz" xmlns="http://www.w3.org/2000/svg" xmlns:xlink="http://www.w3.org/1999/xlink" x="0px"
	 y="0px" viewBox="0 0 409.6 883.4" style="enable-background:new 0 0 409.6 883.4;" xml:space="preserve">
<style type="text/css">
	.st0{fill:#78E08F;}
	.st1{fill:#61C975;}
	.st2{fill:#FF5252;}
</style>
<g>
	<g>
		<path class="st0" d="M313.8,585.5c-0.1,0-0.2,0-0.2,0c-8-0.1-14.4-6.7-14.3-14.7c0.1-8,6.6-14.3,14.5-14.3c0,0,0.1,0,0.1,0
			c0.6,0,29-0.3,48.1-20.7c14.1-15.1,20.3-37.9,18.3-67.8c-1.5-22.9-11.1-45.1-28.6-66c-5.1-6.2-4.3-15.3,1.9-20.4
			c6.2-5.1,15.3-4.3,20.4,1.9c21.4,25.7,33.3,53.5,35.2,82.6c2.6,38.4-6.3,68.7-26.4,89.9C355.5,584.8,317.4,585.5,313.8,585.5z"/>
	</g>
	<g>
		<path class="st0" d="M371.8,378.4c4.3,4.5,0.4,9.3-6.1,15.6s-13.4,11.8-17.7,7.3c-4.3-4.5-2.5-13.3,4.1-19.6
			S367.5,373.9,371.8,378.4z"/>
	</g>
	<path class="st1" d="M366.8,377.7c2.7,3.3,0.5,9.4-4.8,13.8c-5.3,4.3-11.8,5.2-14.4,2c-2.7-3.3,4.8-5,10.1-9.4
		C362.9,379.7,364.1,374.4,366.8,377.7z"/>
	<g>
		<path class="st2" d="M360.5,366.2c-2.4-2.7-4.5-5.7-6.3-8.8c-1-1.7-2.3-3.2-3.9-4.5l-2.5-2l-19.6-15.8c-0.8-0.7-1.9-1.1-3-1.1
			l-8,0c-1.2,0-2.4,0.4-3.2,1.1c-2.3,2-2.1,5.5,0.1,7.3l20.9,16.9c2,1.6,2.4,4.6,0.7,6.7l0,0c-1.6,2-4.6,2.4-6.7,0.7L308.2,350
			c-1.7-1.3-4.1-1.6-5.8-0.3c-1.6,1.1-2.3,3.1-1.9,4.9l1.7,8c0.2,1.1,0.8,2,1.7,2.7l19.6,15.8l2.5,2c1.5,1.2,3.2,2.1,4.9,2.7
			c3.4,1.2,6.6,3,9.7,4.9c2.8,1.7,6.3,2.5,9.9,2.2c7.4-0.8,13.4-6.7,14.2-14.1C365.1,373.9,363.5,369.5,360.5,366.2z"/>
	</g>
</g>
</svg>
